<?xml version="1.0" encoding="UTF-8"?>
<svg width="180px" height="60px" viewBox="0 0 180 60" version="1.1" xmlns="http://www.w3.org/2000/svg" xmlns:xlink="http://www.w3.org/1999/xlink">
    <!-- Generator: Sketch 41 (35326) - http://www.bohemiancoding.com/sketch -->
    <title>tire-quote</title>
    <desc>Created with Sketch.</desc>
    <defs></defs>
    <g id="Page-1" stroke="none" stroke-width="1" fill="none" fill-rule="evenodd">
        <g id="180---iPhone-6-Plus" transform="translate(0.000000, -59.000000)">
            <g id="tire-quote" transform="translate(0.000000, 59.000000)">
                <rect id="Rectangle" fill="#F44336" x="0" y="0" width="180" height="60"></rect>
                <path d="M139.965278,10 C129.507827,10 121,18.5076784 121,28.9651294 C121,39.4225804 129.507827,47.9302588 139.965278,47.9302588 C150.42258,47.9302588 158.930408,39.4225804 158.930408,28.9651294 C158.930408,18.5076784 150.422431,10 139.965278,10 Z M139.965278,42.4350118 C132.525922,42.4350118 126.495247,36.4044863 126.495247,28.9651294 C126.495247,21.5257725 132.525922,15.4952471 139.965278,15.4952471 C147.404337,15.4952471 153.435161,21.5257725 153.435161,28.9651294 C153.435161,36.4044863 147.404188,42.4350118 139.965278,42.4350118 Z" id="Shape" fill="#FFFFFF"></path>
                <path d="M139.965278,17.2390745 C133.499318,17.2390745 128.239075,22.4993176 128.239075,28.9651294 C128.239075,35.4309412 133.499467,40.6911843 139.965278,40.6911843 C146.43109,40.6911843 151.691333,35.4309412 151.691333,28.9651294 C151.691333,22.4993176 146.430941,17.2390745 139.965278,17.2390745 Z M150.189663,28.217498 L144.500094,28.217498 C144.383859,27.4984784 144.099827,26.8353412 143.690173,26.2684706 L147.706847,22.2517961 C149.116871,23.8755137 150.024698,25.944502 150.189663,28.217498 Z M140.700988,18.739702 C142.972643,18.9016863 145.040886,19.8060863 146.665498,21.2120863 L142.649718,25.2280157 C142.082847,24.8185098 141.419859,24.5346275 140.700988,24.4183922 L140.700988,18.739702 Z M139.22942,18.739702 L139.22942,24.4182431 C138.510549,24.5344784 137.847412,24.8183608 137.280541,25.2280157 L133.264612,21.2122353 C134.889224,19.8062353 136.957765,18.9016863 139.22942,18.739702 Z M132.223114,22.2519451 L136.239937,26.2686196 C135.830282,26.8353412 135.5464,27.4984784 135.430165,28.217349 L129.740596,28.217349 C129.905561,25.944502 130.813388,23.8756627 132.223114,22.2519451 Z M129.738957,29.6889176 L135.430314,29.6889176 C135.5464,30.4077882 135.830431,31.0709255 136.240086,31.6377961 L132.212235,35.6656471 C130.803702,34.0380549 129.898557,31.9651922 129.738957,29.6889176 Z M139.22942,39.1905569 C136.951655,39.0281255 134.878494,38.1194039 133.251796,36.7069961 L137.280541,32.678251 C137.847412,33.0879059 138.510549,33.3717882 139.22942,33.4880235 L139.22942,39.1905569 Z M139.22942,31.9742824 L139.22942,31.9850118 C138.911859,31.9078196 138.61382,31.7823451 138.342306,31.6163373 L138.34931,31.6093333 C137.924604,31.3503373 137.567851,30.9935843 137.308855,30.5687294 L137.302,30.5755843 C137.135992,30.3040706 137.010518,30.0061804 136.933325,29.6886196 L136.943906,29.6886196 C136.886533,29.4524235 136.852855,29.2068392 136.852855,28.9529098 C136.852855,28.6989804 136.886682,28.4533961 136.943906,28.2172 L136.933325,28.2172 C137.010518,27.8997882 137.135843,27.601898 137.302,27.3303843 L137.308855,27.3372392 C137.567851,26.9125333 137.924753,26.5556314 138.34931,26.2967843 L138.342306,26.2897804 C138.61382,26.1237725 138.911859,25.998149 139.22942,25.9211059 L139.22942,25.9318353 C139.465765,25.8744627 139.7112,25.8406353 139.965278,25.8406353 C140.219357,25.8406353 140.464792,25.8744627 140.701137,25.9318353 L140.701137,25.9211059 C141.018698,25.998298 141.316588,26.1236235 141.587953,26.2896314 L141.580949,26.2966353 C142.005804,26.5554824 142.362557,26.9123843 142.621553,27.3370902 L142.628408,27.3302353 C142.794565,27.601749 142.920039,27.8997882 142.997231,28.217349 L142.986651,28.217349 C143.044024,28.4535451 143.077702,28.6991294 143.077702,28.9530588 C143.077702,29.2069882 143.043875,29.4525725 142.986651,29.6887686 L142.997231,29.6887686 C142.920039,30.0063294 142.794714,30.3043686 142.628408,30.5758824 L142.621553,30.5690275 C142.362557,30.9937333 142.005655,31.3504863 141.580949,31.6094824 L141.587953,31.6163373 C141.316588,31.7823451 141.018698,31.9078196 140.701137,31.9850118 L140.701137,31.9742824 C140.464792,32.0316549 140.219357,32.0654824 139.965278,32.0654824 C139.7112,32.0654824 139.465765,32.0318039 139.22942,31.9742824 Z M140.700988,39.1905569 L140.700988,33.4880235 C141.419859,33.3717882 142.082847,33.0879059 142.649718,32.6784 L146.678314,36.7069961 C145.051765,38.1194039 142.978604,39.0281255 140.700988,39.1905569 Z M147.718024,35.6656471 L143.690322,31.6379451 C144.099976,31.0710745 144.383859,30.4079373 144.500243,29.6889176 L150.191451,29.6889176 C150.031702,31.9651922 149.126706,34.0380549 147.718024,35.6656471 Z" id="Shape" fill="#FFFFFF"></path>
                <text id="Tire-Quote" font-family="Roboto-BoldItalic, Roboto" font-size="14" font-style="italic" font-weight="bold" letter-spacing="2.10000014" fill="#FFFFFF">
                    <tspan x="21.0874016" y="34">Tire Quote</tspan>
                </text>
            </g>
        </g>
    </g>
</svg>