<?xml version="1.0" encoding="utf-8"?>
<!-- Generator: Adobe Illustrator 19.1.0, SVG Export Plug-In . SVG Version: 6.00 Build 0)  -->
<svg version="1.1" id="Layer_1" xmlns="http://www.w3.org/2000/svg" xmlns:xlink="http://www.w3.org/1999/xlink" x="0px" y="0px"
	 viewBox="0 0 311 114" style="enable-background:new 0 0 311 114;" xml:space="preserve">
<style type="text/css">
	.st0{fill:#0081C6;}
	.st1{fill:#F89828;}
</style>
<g>
	<g>
		<g>
			<path class="st0" d="M168.6,84.3h7.3c5.6,0,8.8,2.3,8.8,7c0,2.4-1.2,4.3-3.4,5.7c2.9,1.8,4,3.3,4,6.7c0,5.4-3.6,7.8-9.1,7.8h-7.6
				V84.3z M173.8,95.1h1.8c2.3,0,3.9-1.4,3.9-3.2c0-2-1.2-3.3-3.6-3.3h-2.1V95.1z M173.8,107.3h2.2c2.7,0,4.1-1.6,4.1-4
				c0-2.6-1.8-3.9-4.5-3.9h-1.8V107.3z"/>
			<path class="st0" d="M203.1,91.1v20.5h-4.6v-2.3c-1.7,1.5-3.4,2.7-5.3,2.7c-2.9,0-4.4-1.5-4.4-5.3V91.1h4.8v15.1
				c0,1.4,0.5,2.3,1.7,2.3c1,0,2.1-0.9,3.1-1.8V91.1H203.1z"/>
			<path class="st0" d="M216.1,97.3c-0.6-1.9-1.8-2.8-3.3-2.8c-1.1,0-1.9,0.8-1.9,1.8c0,3.2,9.3,3.2,9.3,9.4c0,4.1-2.9,6.2-6.8,6.2
				c-2.9,0-5.4-0.7-7.7-5.8l4.3-1.2c0.4,1.9,1.6,3.2,3.5,3.2c1.4,0,2.3-0.7,2.3-1.8c0-3.9-9.3-3-9.3-9.9c0-3.9,3.1-5.7,6.5-5.7
				c3.5,0,6,2,7.2,5.1L216.1,97.3z"/>
			<path class="st0" d="M223.3,87.5v-4.3h4.8v4.3H223.3z M228,91.1v20.5h-4.8V91.1H228z"/>
			<path class="st0" d="M232,111.6V91.1h4.6v2.3c1.7-1.5,3.4-2.7,5.3-2.7c2.9,0,4.4,1.5,4.4,5.3v15.6h-4.8V96.5
				c0-1.4-0.5-2.3-1.7-2.3c-1,0-2.1,0.9-3.1,1.8v15.5H232z"/>
			<path class="st0" d="M254.7,102.4v2.7c0,2,1.2,2.9,2.8,2.9c2,0,2.8-1.3,2.8-2.9h4.8c-0.2,4.2-2.8,6.7-7.5,6.7
				c-4.5,0-7.5-2.8-7.5-7.3V98c0-4.5,3-7.3,7.5-7.3c4.4,0,7.5,2.8,7.5,7v4.8H254.7z M260.3,98.6v-1.1c0-1.8-0.9-2.9-2.8-2.9
				c-1.9,0-2.8,1.1-2.8,2.9v1.1H260.3z"/>
			<path class="st0" d="M277.7,97.3c-0.6-1.9-1.8-2.8-3.3-2.8c-1.1,0-1.9,0.8-1.9,1.8c0,3.2,9.3,3.2,9.3,9.4c0,4.1-2.9,6.2-6.8,6.2
				c-2.9,0-5.4-0.7-7.7-5.8l4.3-1.2c0.4,1.9,1.6,3.2,3.5,3.2c1.4,0,2.3-0.7,2.3-1.8c0-3.9-9.3-3-9.3-9.9c0-3.9,3.1-5.7,6.5-5.7
				c3.5,0,6,2,7.2,5.1L277.7,97.3z"/>
			<path class="st0" d="M293.8,97.3c-0.6-1.9-1.8-2.8-3.3-2.8c-1.1,0-1.9,0.8-1.9,1.8c0,3.2,9.3,3.2,9.3,9.4c0,4.1-2.9,6.2-6.8,6.2
				c-2.9,0-5.4-0.7-7.7-5.8l4.3-1.2c0.4,1.9,1.6,3.2,3.5,3.2c1.4,0,2.3-0.7,2.3-1.8c0-3.9-9.3-3-9.3-9.9c0-3.9,3.1-5.7,6.5-5.7
				c3.5,0,6,2,7.2,5.1L293.8,97.3z"/>
		</g>
	</g>
	<g>
		<g>
			<path class="st0" d="M50.1,13.9c0,6.3-5.1,11.4-11.4,11.4c-6.3,0-11.4-5.1-11.4-11.4c0-6.3,5.1-11.4,11.4-11.4
				C45,2.5,50.1,7.6,50.1,13.9"/>
			<path class="st1" d="M5.2,9.8C4.1,5.1,8.1,4.9,9,7.1C19.7,28,33.5,53,38.8,53c5.3,0,19-25.1,29.5-45.9c0.9-2.3,5-1.7,3.9,2.5
				c-8.5,25.7-21.7,58.9-33.4,58.9C27.1,68.5,13.9,35.6,5.2,9.8"/>
		</g>
		<g>
			<path class="st1" d="M104.8,41.8c0-8.1-5.2-11.5-11.3-11.5c-6.1,0-11.3,3.4-11.3,11.5c0,7.4,4.1,11.8,11.3,11.8
				S104.8,49.1,104.8,41.8 M74,41.9c0-9.3,5.6-18.5,19.4-18.5s19.4,9.2,19.4,18.5c0,13.8-9.9,18.5-19.4,18.5
				C84,60.4,74,55.7,74,41.9"/>
			<path class="st1" d="M122.5,24.6h7.9v4.3c2.5-2.5,5.9-5.5,13-5.5c7.2,0,13.6,3,13.6,13.6v22.2h-8V40c0-6.8-2.1-9.8-7.4-9.8
				c-6.4,0-9,2.6-11,5.1v23.9h-8V24.6z"/>
			<path class="st1" d="M195.2,41.8c-4.7,0.2-8.7,0.8-12.5,1.7c-5,1.2-7.3,2.8-7.4,5.9c-0.1,3,1.9,4.8,5.8,4.8
				c6.1,0,10.9-2.6,14-4.5V41.8z M203.2,53.7c0,2.3,0.1,4.6,0.6,5.6h-8.2c-0.3-1.2-0.5-2.3-0.5-3.5c-3.4,1.9-8.3,4.7-15.2,4.7
				c-4.6,0-13.4-1.9-13.4-10.5c0-11.7,17.4-13.4,28.6-14v-1.6c0-2.6-2.4-4.5-9-4.5c-7.4,0-8.9,2.7-9.4,4.6h-8.3
				c1.9-9.4,11.2-11.1,17.6-11.1c16.7,0,17.1,8.1,17.1,12.9V53.7z"/>
			<path class="st1" d="M240.9,36.1c0-5.2-5.3-6.7-9.6-6.7c-4.4,0-9.3,1.6-9.3,6.8c0,5.4,5,6.8,9.2,6.8
				C235.5,42.9,240.9,41.2,240.9,36.1 M225.5,59.7c-1.9,0-4.6,0.5-4.6,2.5c0,2.8,3.7,3.2,10.1,3.2c6.3,0,13-0.7,13-3.5
				c0-2.4-1.4-2.3-10.3-2.2H225.5z M252.7,30.2c-0.7-0.2-2-0.7-2.9-0.5c-0.9,0-2.1,0.4-2.6,0.7c0.5,0.7,1.6,2.8,1.6,5.8
				c0,9.4-8.4,12.8-17.6,12.8c-3.2,0-5.8-0.5-7.3-1.1c-0.9,0.6-2.2,1.6-2.2,2.8c0,1.2,0.8,2.1,7.8,2h10.9c7.8,0.3,12.3,2.5,12.3,7.9
				c0,8.3-12.1,10.7-22.6,10.7c-9.7,0-18.1-1.9-18.1-7.7c0-4.1,3.7-4.7,7-5.4V58c-3-0.3-5.2-1.9-5.2-5.4c0-3.5,3.3-6.1,6.1-6.5V46
				c-3.9-2.1-5.8-5.6-5.8-10c0-10.2,9.4-12.6,17.9-12.6c6.1,0,9.6,1.6,12,3.2c1.2-1.3,3.8-3.7,7.3-3.7h1.3V30.2z"/>
			<path class="st1" d="M289.5,38c-1.2-5.9-5.2-8.1-11-8.1c-4.2,0-9,1.4-10.7,8.1H289.5z M297.4,48.9c-0.6,2.8-5.2,11.6-18.1,11.6
				c-12.4,0-19.8-7.8-19.8-18.6c0-9.8,6.5-18.4,19.3-18.4c13.1,0.1,19.3,8.2,19.3,20.7h-30.4c0.3,2.2,1.5,9.4,11.4,9.8
				c5,0,8.4-2.4,9.6-5.1H297.4z"/>
			<path class="st1" d="M302.1,21.9h1.4c0.7,0,1.5,0.1,1.5,1.1c0,1.1-0.9,1.1-1.8,1.1h-1.1V21.9z M301,27.9h1.1v-3h1.1l1.9,3h1.1
				l-2-3c1-0.1,1.8-0.6,1.8-1.9c0-1.3-0.8-2-2.4-2H301V27.9z M298.5,24.4c0-2.8,2.1-5,4.9-5c2.7,0,4.8,2.2,4.8,5
				c0,2.9-2.1,5.1-4.8,5.1C300.6,29.5,298.5,27.3,298.5,24.4 M297.4,24.4c0,3.4,2.7,5.9,5.9,5.9c3.2,0,5.9-2.5,5.9-5.9
				c0-3.3-2.7-5.9-5.9-5.9C300.1,18.6,297.4,21.1,297.4,24.4"/>
		</g>
	</g>
</g>
</svg>
